<svg width="885" height="243" viewBox="0 0 885 243" fill="none" xmlns="http://www.w3.org/2000/svg">
<path d="M840.5 129.25V116.25C840.5 103.917 838.667 94.5 835 88C831.5 81.5 824.083 78.25 812.75 78.25C794.417 78.25 785.25 90.5833 785.25 115.25V128.25C785.25 154.75 794.417 168 812.75 168C824.583 168 832.333 163.583 836 154.75C839 147.75 840.5 139.25 840.5 129.25ZM873 121.75C873 152.583 867.167 173.25 855.5 183.75C845.667 192.75 831.417 197.25 812.75 197.25C788.917 197.25 772.833 190.25 764.5 176.25C756.667 163.417 752.75 145.25 752.75 121.75C752.75 99.75 756.667 82.5 764.5 70C773.167 56 788.917 49 811.75 49C834.75 49 850.667 55.1667 859.5 67.5C868.5 79.6667 873 97.75 873 121.75Z" fill="#ED1C24"/>
<path d="M695 183.25C695 190.844 688.844 197 681.25 197H674.75C662.417 197 653 193.333 646.5 186C640.167 178.667 637 169.917 637 159.75V91.625C637 87.828 633.922 84.75 630.125 84.75C626.328 84.75 623.25 81.672 623.25 77.875V66.875C623.25 63.078 626.328 60 630.125 60C633.922 60 637 56.922 637 53.125V46C637 38.268 643.268 32 651 32H655.5C663.232 32 669.5 38.268 669.5 46V48.5C669.5 54.8513 674.649 60 681 60C687.351 60 692.5 65.1487 692.5 71.5V73.25C692.5 79.6013 687.351 84.75 681 84.75C674.649 84.75 669.5 89.8987 669.5 96.25V157.75C669.5 165.583 673.25 169.5 680.75 169.5H681.25C688.844 169.5 695 175.656 695 183.25Z" fill="#ED1C24"/>
<path d="M489 181.069C489 189.177 482.427 195.75 474.319 195.75H472.004C467.595 195.75 463.602 193.147 461.822 189.113C459.31 183.42 452.617 180.893 446.969 183.505L424.36 193.961C419.676 196.128 414.532 197.493 409.458 196.545C401.487 195.056 394.334 191.208 388 185C379.833 176.667 375.75 164.583 375.75 148.75V69.25C375.75 60.2754 383.025 53 392 53C400.975 53 408.25 60.2754 408.25 69.25V141.75C408.25 157.583 414.583 165.5 427.25 165.5L430.205 163.909C446.4 155.188 456.5 138.279 456.5 119.885V69.25C456.5 60.2754 463.775 53 472.75 53C481.725 53 489 60.2754 489 69.25V181.069Z" fill="#ED1C24"/>
<path d="M363 52C367.969 52 369.853 57.6881 368.508 62.4712L364.101 78.1405C362.845 82.6064 357.889 85 353.25 85C344.917 85 334.667 88.5833 322.5 95.75V180.5C322.5 189.475 315.225 196.75 306.25 196.75C297.275 196.75 290 189.475 290 180.5V69.4834C290 60.9322 296.932 54 305.483 54H308.468C312.055 54 315.379 55.882 317.225 58.9578C319.826 63.2928 325.207 65.0721 329.879 63.1422L351.219 54.3282C354.555 52.9501 358.077 52.0427 361.686 52.0064C362.109 52.0021 362.547 52 363 52Z" fill="white"/>
<path d="M280 155.25V159C279 171.5 273.667 180.917 264 187.25C254.5 193.583 242.583 196.75 228.25 196.75C207.083 196.75 192.25 192.917 183.75 185.25C175.917 178.25 172 167.917 172 154.25C172 152.593 173.343 151.25 175 151.25H186.75C194.896 151.25 200.116 158.99 205.454 165.143C206.065 165.848 206.747 166.467 207.5 167C211.5 169.833 218.417 171.25 228.25 171.25C241.583 171.25 248.25 166.417 248.25 156.75C248.25 148.75 245.917 143.417 241.25 140.75C239.083 139.417 236.333 138.417 233 137.75L207.75 133.5C185.75 130 174.75 116.25 174.75 92.25C174.75 78.9167 179.583 68.5833 189.25 61.25C199.083 53.75 211.5 50 226.5 50C260.667 50 277.75 64.75 277.75 94.25C277.75 96.0449 276.295 97.5 274.5 97.5H263.325C255.596 97.5 250.36 90.6688 245.956 84.3183C245.18 83.1991 244.278 82.2597 243.25 81.5C239.417 78.6667 234 77.25 227 77.25C220.167 77.25 215 78.6667 211.5 81.5C208 84.1667 206.25 87.1667 206.25 90.5C206.25 100 210.083 105.417 217.75 106.75L248 112.25C269.333 116.25 280 130.583 280 155.25Z" fill="#ED1C24"/>
<path d="M143.25 0C151.083 0 156.167 1.25 158.5 3.75C160.833 6.08333 162 11.1667 162 19C162 26.6667 160.75 31.75 158.25 34.25C155.917 36.5833 150.833 37.75 143 37.75C135.333 37.75 130.25 36.5 127.75 34C125.417 31.5 124.25 26.4167 124.25 18.75C124.25 11.0833 125.417 6.08333 127.75 3.75C130.25 1.25 135.417 0 143.25 0ZM159.25 181C159.25 189.975 151.975 197.25 143 197.25C134.025 197.25 126.75 189.975 126.75 181V76C126.75 67.0254 134.025 59.75 143 59.75C151.975 59.75 159.25 67.0254 159.25 76V181Z" fill="white"/>
<path d="M724 0C731.833 0 736.917 1.25 739.25 3.75C741.583 6.08333 742.75 11.1667 742.75 19C742.75 26.6667 741.5 31.75 739 34.25C736.667 36.5833 731.583 37.75 723.75 37.75C716.083 37.75 711 36.5 708.5 34C706.167 31.5 705 26.4167 705 18.75C705 11.0833 706.167 6.08333 708.5 3.75C711 1.25 716.167 0 724 0ZM740 181C740 189.975 732.725 197.25 723.75 197.25C714.775 197.25 707.5 189.975 707.5 181V76C707.5 67.0254 714.775 59.75 723.75 59.75C732.725 59.75 740 67.0254 740 76V181Z" fill="white"/>
<path d="M114.25 181.201C114.25 188.822 108.072 195 100.451 195H99.9307C95.3313 195 91.08 192.551 88.7733 188.571C85.2781 182.542 77.6252 180.38 71.4919 183.69L54.9297 192.626C50.2172 195.169 44.9235 196.672 39.6059 196.043C24.7183 194.282 14.433 187.434 8.75 175.5C5.41667 168.667 3.08333 161.333 1.75 153.5C0.583333 145.5 0 137.25 0 128.75C0 120.083 0.0833333 113.75 0.25 109.75C0.416666 105.583 0.833333 100.833 1.5 95.5C2.16667 90 3.08333 85.4167 4.25 81.75C5.58333 78.0833 7.41667 74.3333 9.75 70.5C12.0833 66.5 14.9167 63.3333 18.25 61C25.75 55.8333 35.5 53.25 47.5 53.25H81.75V23.25C81.75 14.2754 89.0254 7 98 7C106.975 7 114.25 14.2754 114.25 23.25V181.201ZM68.1989 156.481C76.5205 152.194 81.75 143.617 81.75 134.257V82.5H57C47.8333 82.5 41.4167 86 37.75 93C34.25 100 32.5 110.5 32.5 124.5C32.5 138.333 34.1667 148.083 37.5 153.75C40.2006 158.122 44.6872 160.808 50.9599 161.807C54.8933 162.433 58.8473 161.298 62.388 159.474L68.1989 156.481Z" fill="#ED1C24"/>
<path d="M499 68.7992C499 61.1781 505.178 55 512.799 55H513.319C517.919 55 522.17 57.4495 524.477 61.4286C527.972 67.4578 535.625 69.6197 541.758 66.3104L558.32 57.3739C563.033 54.8312 568.326 53.3282 573.644 53.9572C588.532 55.718 598.817 62.5656 604.5 74.5C607.833 81.3333 610.167 88.6667 611.5 96.5C612.667 104.5 613.25 112.75 613.25 121.25C613.25 129.917 613.167 136.25 613 140.25C612.833 144.417 612.417 149.167 611.75 154.5C611.083 160 610.167 164.583 609 168.25C607.667 171.917 605.833 175.667 603.5 179.5C601.167 183.5 598.333 186.667 595 189C587.5 194.167 577.75 196.75 565.75 196.75H531.5V226.75C531.5 235.725 524.225 243 515.25 243C506.275 243 499 235.725 499 226.75V68.7992ZM545.051 93.5191C536.729 97.806 531.5 106.383 531.5 115.743V167.5H556.25C565.417 167.5 571.833 164 575.5 157C579 150 580.75 139.5 580.75 125.5C580.75 111.667 579.083 101.917 575.75 96.25C573.049 91.8776 568.563 89.1921 562.29 88.1935C558.357 87.5672 554.403 88.7016 550.862 90.5256L545.051 93.5191Z" fill="white"/>
<path d="M847.5 129.25V116.25C847.5 103.917 845.667 94.5 842 88C838.5 81.5 831.083 78.25 819.75 78.25C801.417 78.25 792.25 90.5833 792.25 115.25V128.25C792.25 154.75 801.417 168 819.75 168C831.583 168 839.333 163.583 843 154.75C846 147.75 847.5 139.25 847.5 129.25ZM880 121.75C880 152.583 874.167 173.25 862.5 183.75C852.667 192.75 838.417 197.25 819.75 197.25C795.917 197.25 779.833 190.25 771.5 176.25C763.667 163.417 759.75 145.25 759.75 121.75C759.75 99.75 763.667 82.5 771.5 70C780.167 56 795.917 49 818.75 49C841.75 49 857.667 55.1667 866.5 67.5C875.5 79.6667 880 97.75 880 121.75Z" fill="white"/>
<path d="M702 183.25C702 190.844 695.844 197 688.25 197H681.75C669.417 197 660 193.333 653.5 186C647.167 178.667 644 169.917 644 159.75V91.625C644 87.828 640.922 84.75 637.125 84.75C633.328 84.75 630.25 81.672 630.25 77.875V66.875C630.25 63.078 633.328 60 637.125 60C640.922 60 644 56.922 644 53.125V46C644 38.268 650.268 32 658 32H662.5C670.232 32 676.5 38.268 676.5 46V48.5C676.5 54.8513 681.649 60 688 60C694.351 60 699.5 65.1487 699.5 71.5V73.25C699.5 79.6013 694.351 84.75 688 84.75C681.649 84.75 676.5 89.8987 676.5 96.25V157.75C676.5 165.583 680.25 169.5 687.75 169.5H688.25C695.844 169.5 702 175.656 702 183.25Z" fill="white"/>
<path d="M496 181.069C496 189.177 489.427 195.75 481.319 195.75H479.004C474.595 195.75 470.602 193.147 468.822 189.113C466.31 183.42 459.617 180.893 453.969 183.505L431.36 193.961C426.676 196.128 421.532 197.493 416.458 196.545C408.487 195.056 401.334 191.208 395 185C386.833 176.667 382.75 164.583 382.75 148.75V69.25C382.75 60.2754 390.025 53 399 53C407.975 53 415.25 60.2754 415.25 69.25V141.75C415.25 157.583 421.583 165.5 434.25 165.5L437.205 163.909C453.4 155.188 463.5 138.279 463.5 119.885V69.25C463.5 60.2754 470.775 53 479.75 53C488.725 53 496 60.2754 496 69.25V181.069Z" fill="white"/>
<path d="M370 52C374.969 52 376.853 57.6881 375.508 62.4712L371.101 78.1405C369.845 82.6064 364.889 85 360.25 85C351.917 85 341.667 88.5833 329.5 95.75V180.5C329.5 189.475 322.225 196.75 313.25 196.75C304.275 196.75 297 189.475 297 180.5V69.4834C297 60.9322 303.932 54 312.483 54H315.468C319.055 54 322.379 55.882 324.225 58.9578C326.826 63.2928 332.207 65.0721 336.879 63.1422L358.219 54.3282C361.555 52.9501 365.077 52.0427 368.686 52.0064C369.109 52.0021 369.547 52 370 52Z" fill="#ED1C24"/>
<path d="M287 155.25V159C286 171.5 280.667 180.917 271 187.25C261.5 193.583 249.583 196.75 235.25 196.75C214.083 196.75 199.25 192.917 190.75 185.25C182.917 178.25 179 167.917 179 154.25C179 152.593 180.343 151.25 182 151.25H193.75C201.896 151.25 207.116 158.99 212.454 165.143C213.065 165.848 213.747 166.467 214.5 167C218.5 169.833 225.417 171.25 235.25 171.25C248.583 171.25 255.25 166.417 255.25 156.75C255.25 148.75 252.917 143.417 248.25 140.75C246.083 139.417 243.333 138.417 240 137.75L214.75 133.5C192.75 130 181.75 116.25 181.75 92.25C181.75 78.9167 186.583 68.5833 196.25 61.25C206.083 53.75 218.5 50 233.5 50C267.667 50 284.75 64.75 284.75 94.25C284.75 96.0449 283.295 97.5 281.5 97.5H270.325C262.596 97.5 257.36 90.6688 252.956 84.3183C252.18 83.1991 251.278 82.2597 250.25 81.5C246.417 78.6667 241 77.25 234 77.25C227.167 77.25 222 78.6667 218.5 81.5C215 84.1667 213.25 87.1667 213.25 90.5C213.25 100 217.083 105.417 224.75 106.75L255 112.25C276.333 116.25 287 130.583 287 155.25Z" fill="white"/>
<path d="M150.25 0C158.083 0 163.167 1.25 165.5 3.75C167.833 6.08333 169 11.1667 169 19C169 26.6667 167.75 31.75 165.25 34.25C162.917 36.5833 157.833 37.75 150 37.75C142.333 37.75 137.25 36.5 134.75 34C132.417 31.5 131.25 26.4167 131.25 18.75C131.25 11.0833 132.417 6.08333 134.75 3.75C137.25 1.25 142.417 0 150.25 0ZM166.25 181C166.25 189.975 158.975 197.25 150 197.25C141.025 197.25 133.75 189.975 133.75 181V76C133.75 67.0254 141.025 59.75 150 59.75C158.975 59.75 166.25 67.0254 166.25 76V181Z" fill="#ED1C24"/>
<path d="M731 0C738.833 0 743.917 1.25 746.25 3.75C748.583 6.08333 749.75 11.1667 749.75 19C749.75 26.6667 748.5 31.75 746 34.25C743.667 36.5833 738.583 37.75 730.75 37.75C723.083 37.75 718 36.5 715.5 34C713.167 31.5 712 26.4167 712 18.75C712 11.0833 713.167 6.08333 715.5 3.75C718 1.25 723.167 0 731 0ZM747 181C747 189.975 739.725 197.25 730.75 197.25C721.775 197.25 714.5 189.975 714.5 181V76C714.5 67.0254 721.775 59.75 730.75 59.75C739.725 59.75 747 67.0254 747 76V181Z" fill="#ED1C24"/>
<path d="M121.25 181.201C121.25 188.822 115.072 195 107.451 195H106.931C102.331 195 98.08 192.551 95.7733 188.571C92.2781 182.542 84.6252 180.38 78.4919 183.69L61.9297 192.626C57.2172 195.169 51.9235 196.672 46.6059 196.043C31.7183 194.282 21.433 187.434 15.75 175.5C12.4167 168.667 10.0833 161.333 8.75 153.5C7.58333 145.5 7 137.25 7 128.75C7 120.083 7.08333 113.75 7.25 109.75C7.41667 105.583 7.83333 100.833 8.5 95.5C9.16667 90 10.0833 85.4167 11.25 81.75C12.5833 78.0833 14.4167 74.3333 16.75 70.5C19.0833 66.5 21.9167 63.3333 25.25 61C32.75 55.8333 42.5 53.25 54.5 53.25H88.75V23.25C88.75 14.2754 96.0254 7 105 7C113.975 7 121.25 14.2754 121.25 23.25V181.201ZM75.1989 156.481C83.5205 152.194 88.75 143.617 88.75 134.257V82.5H64C54.8333 82.5 48.4167 86 44.75 93C41.25 100 39.5 110.5 39.5 124.5C39.5 138.333 41.1667 148.083 44.5 153.75C47.2006 158.122 51.6872 160.808 57.9599 161.807C61.8933 162.433 65.8473 161.298 69.388 159.474L75.1989 156.481Z" fill="white"/>
<path d="M506 68.7992C506 61.1781 512.178 55 519.799 55H520.319C524.919 55 529.17 57.4495 531.477 61.4286C534.972 67.4578 542.625 69.6197 548.758 66.3104L565.32 57.3739C570.033 54.8312 575.326 53.3282 580.644 53.9572C595.532 55.718 605.817 62.5656 611.5 74.5C614.833 81.3333 617.167 88.6667 618.5 96.5C619.667 104.5 620.25 112.75 620.25 121.25C620.25 129.917 620.167 136.25 620 140.25C619.833 144.417 619.417 149.167 618.75 154.5C618.083 160 617.167 164.583 616 168.25C614.667 171.917 612.833 175.667 610.5 179.5C608.167 183.5 605.333 186.667 602 189C594.5 194.167 584.75 196.75 572.75 196.75H538.5V226.75C538.5 235.725 531.225 243 522.25 243C513.275 243 506 235.725 506 226.75V68.7992ZM552.051 93.5191C543.729 97.806 538.5 106.383 538.5 115.743V167.5H563.25C572.417 167.5 578.833 164 582.5 157C586 150 587.75 139.5 587.75 125.5C587.75 111.667 586.083 101.917 582.75 96.25C580.049 91.8776 575.563 89.1921 569.29 88.1935C565.357 87.5672 561.403 88.7016 557.862 90.5256L552.051 93.5191Z" fill="#ED1C24"/>
</svg>
